<?xml version="1.0" encoding="iso-8859-1"?>
<!-- Generator: Adobe Illustrator 16.0.0, SVG Export Plug-In . SVG Version: 6.00 Build 0)  -->
<!DOCTYPE svg PUBLIC "-//W3C//DTD SVG 1.1//EN" "http://www.w3.org/Graphics/SVG/1.1/DTD/svg11.dtd">
<svg version="1.1" xmlns="http://www.w3.org/2000/svg" xmlns:xlink="http://www.w3.org/1999/xlink" x="0px" y="0px" width="512px"
	 height="512px" viewBox="0 0 512 512" style="enable-background:new 0 0 512 512;" xml:space="preserve">
<g id="Guides_For_Artboard">
</g>
<g id="Artwork">
</g>
<g id="Layer_3">
	<g>
		<circle style="fill:#664B3A;" cx="255.997" cy="256" r="245"/>
		<g>
			<path style="fill:none;" d="M239.378,265.732c-0.137-0.082-0.28-0.153-0.416-0.236c-3.956,3.182-8.572,5.574-13.61,6.944
				c3.479,9.855,6.797,21.5,9.696,35.255C236.514,291.454,238.051,277.139,239.378,265.732z"/>
			<path style="fill:none;" d="M292.273,257.262c-1.327-0.326-2.63-0.714-3.897-1.178c-4.458,5.906-10.632,10.436-17.772,12.88
				c-1.222,10.462-2.635,23.535-4.009,38.46C274.867,287.302,284.125,270.365,292.273,257.262z"/>
			<path style="fill:none;" d="M294.225,171.815c0.136-0.099,0.272-0.199,0.413-0.294c-0.224-0.037-0.445-0.088-0.668-0.128
				C294.057,171.533,294.138,171.675,294.225,171.815z"/>
			<path style="fill:#F6E0C2;" d="M322.241,251.898c-5.991,4.071-13.223,6.452-21.013,6.452c-3.088,0-6.085-0.383-8.955-1.088
				c-7.528,12.106-15.714,27.38-23.485,45.521c-0.64,1.493-2.063,1.239-1.917-0.292c1.233-12.995,2.64-24.167,3.732-33.527
				c-3.803,1.302-7.875,2.022-12.119,2.022c-6.983,0-13.513-1.926-19.106-5.255c-1.232,10.596-2.334,23.579-3.704,38.406
				c-0.104,1.135-1.129,1.202-1.385,0.047c-2.714-12.24-5.758-22.74-8.938-31.746c-3.131,0.852-6.424,1.31-9.826,1.31
				c-12.645,0-23.816-6.276-30.593-15.875c-0.297,0.059-0.598,0.107-0.898,0.156c11.161,18.094,29.957,63.867,29.957,166.944
				c0,1.957,1.586,3.543,3.544,3.543h53.124c1.957,0,3.543-1.586,3.543-3.543c0-80.689,37.932-142.703,55.312-166.881
				C326.831,256.343,324.387,254.259,322.241,251.898z"/>
			<path style="fill:#C1B523;" d="M375.02,153.208c1.904-2.769,3.452-5.848,4.548-9.202c6.178-18.903-4.14-39.234-23.043-45.412
				c-6.723-2.196-13.627-2.3-20.01-0.678c-1.133,0.346-1.664,0.283-3.036-1.062c-4.824-4.935-10.867-8.817-17.879-11.108
				c-15.509-5.068-31.792-1.1-43.171,9.002c-0.628,0.557-1.891,1.607-3.246,0.371c-4.522-4.167-9.983-7.458-16.211-9.494
				c-19.209-6.276-38.974,1.754-50.396,17.246c-0.818,1.11-1.725,1.891-3.628,1.623c-11.816-1.667-23.194,3.307-29.997,12.34
				c-18.862,1.929-33.579,17.864-33.579,37.236c0,7.551,2.373,14.491,6.087,20.458c0.924,1.484,0.58,2.047-0.152,2.396
				c-12.016,5.719-19.662,18.708-19.663,32.949c0,20.232,16.048,36.776,36.113,37.411c1.313,0.042,1.813,0.26,2.571,1.234
				c4.603,5.917,11.697,9.833,19.771,9.833c1.072,0,2.132-0.042,3.163-0.207c1.672-0.268,2.027,0.244,2.896,1.371
				c6.751,8.75,17.459,14.236,29.368,14.236c3.402,0,6.695-0.458,9.826-1.31c4.92-1.337,9.453-3.633,13.332-6.722
				c0.278-0.222,0.558-0.067,0.694,0.014c5.594,3.329,12.123,5.255,19.106,5.255c4.244,0,8.316-0.721,12.119-2.022
				c6.94-2.376,12.666-6.971,17.394-12.387c0.275-0.315,0.847-0.325,1.082-0.245c1.044,0.356,2.111,0.664,3.194,0.93
				c2.87,0.705,5.867,1.088,8.955,1.088c7.345,0,14.028-1.903,19.81-5.557c0.844-0.516,1.656-0.516,2.021-0.023
				c1.942,2.005,4.107,3.792,6.454,5.324c5.875,3.834,12.893,6.063,20.431,6.063c20.674,0,37.435-16.76,37.435-37.433
				c0-5.009-0.992-9.782-2.777-14.148c-0.646-1.23,0.067-2.03,0.326-2.503c1.278-2.342,2.364-4.832,3.224-7.46
				c5.707-17.468-0.046-35.919-13.121-47.237C374.538,154.929,374.351,154.158,375.02,153.208z M294.225,171.815
				c-0.087-0.14-0.168-0.283-0.255-0.423c0.223,0.041,0.444,0.091,0.668,0.128C294.497,171.617,294.36,171.717,294.225,171.815z"/>
		</g>
	</g>
</g>
</svg>
