<?xml version="1.0" encoding="iso-8859-1"?>
<!-- Generator: Adobe Illustrator 16.0.0, SVG Export Plug-In . SVG Version: 6.00 Build 0)  -->
<!DOCTYPE svg PUBLIC "-//W3C//DTD SVG 1.1//EN" "http://www.w3.org/Graphics/SVG/1.1/DTD/svg11.dtd">
<svg version="1.1" xmlns="http://www.w3.org/2000/svg" xmlns:xlink="http://www.w3.org/1999/xlink" x="0px" y="0px" width="512px"
	 height="512px" viewBox="0 0 512 512" style="enable-background:new 0 0 512 512;" xml:space="preserve">
<g id="Guides_For_Artboard">
</g>
<g id="Artwork">
</g>
<g id="Layer_3">
	<g>
		<circle style="fill:#E6A52E;" cx="255.866" cy="255.699" r="245"/>
		<g>
			<path style="fill:#F6E0C2;" d="M405.192,130.134c-2.539-0.701-2.896-2.439-3.139-3.266
				c-3.643-12.403-13.113-22.424-26.656-22.512c-16.829-0.112-30.613,13.485-30.726,30.314c-0.03,4.61,0.956,9.047,2.862,13.087
				c0.377,0.8,1.556,2.047-0.988,4.492c-2.26,2.173-35.438,34.076-42.792,41.146l33.151,30.38
				c10.216-9.823,39.498-37.979,41.193-39.609c2.056-1.977,3.064-0.918,3.728-0.561c4.055,2.179,8.574,3.406,13.322,3.561
				c16.82,0.546,30.947-12.693,31.496-29.514C427.086,144.117,417.654,133.571,405.192,130.134z"/>
			<path style="fill:#735542;" d="M302.13,191.907c-4.57-3.89-10.965-2.985-15.41,1.041c-15.031,13.617-68.286,9.408-68.988,9.686
				c-26.86,0.832-66.726,2.791-89.736,23.815c-45.908,41.958-54.026,107.824-18.145,147.095
				c35.509,38.845,99.484,41.525,142.609,0.13c43.125-41.395,37.749-51.978,62.611-91.745
				c28.087-44.923,34.156-46.891,22.974-57.109l-1.141-1.045l-33.151-30.38L302.13,191.907z"/>
		</g>
	</g>
</g>
</svg>
