<?xml version="1.0" encoding="iso-8859-1"?>
<!-- Generator: Adobe Illustrator 16.0.0, SVG Export Plug-In . SVG Version: 6.00 Build 0)  -->
<!DOCTYPE svg PUBLIC "-//W3C//DTD SVG 1.1//EN" "http://www.w3.org/Graphics/SVG/1.1/DTD/svg11.dtd">
<svg version="1.1" xmlns="http://www.w3.org/2000/svg" xmlns:xlink="http://www.w3.org/1999/xlink" x="0px" y="0px" width="512px"
	 height="512px" viewBox="0 0 512 512" style="enable-background:new 0 0 512 512;" xml:space="preserve">
<g id="Guides_For_Artboard">
</g>
<g id="Artwork">
</g>
<g id="Layer_3">
	<g>
		<circle style="fill:#E6A52E;" cx="255.809" cy="257" r="245"/>
		<g>
			<path style="fill:#EAEBEC;" d="M416.392,133.505c1.603-1.392,2.172-3.632,1.43-5.621c-0.744-1.988-2.643-3.306-4.765-3.306H98.56
				c-2.1,0-3.983,1.291-4.743,3.249c-0.758,1.958-0.236,4.181,1.317,5.596l142.22,129.648v97.83h32.872V260.438L416.392,133.505z
				 M255.798,254.974c-0.767,0.666-1.72,0.998-2.672,0.998c-0.986,0-1.969-0.355-2.747-1.063c0,0-58.866-52.936-63.187-57.602
				c-3.13-3.38-2.775-5.284,2.37-5.284c28.956,0,125.198,0,129.125,0c4.625,0,6.633,1.986,2.141,6.478
				C312.145,207.184,255.798,254.974,255.798,254.974z"/>
			<path style="fill:#D46A56;" d="M318.687,192.022c-3.926,0-100.169,0-129.125,0c-5.146,0-5.5,1.903-2.37,5.284
				c4.321,4.667,63.187,57.602,63.187,57.602c0.777,0.708,1.761,1.063,2.747,1.063c0.952,0,1.905-0.332,2.672-0.998
				c0,0,56.347-47.79,65.03-56.473C325.319,194.009,323.311,192.022,318.687,192.022z"/>
			<path style="fill:#DDDEE0;" d="M180.796,360.901c-9.211,0-16.677,6.384-16.677,14.26c0,7.876,7.466,14.261,16.677,14.261h145.99
				c9.209,0,16.677-6.384,16.677-14.261c0-7.876-7.467-14.26-16.677-14.26h-56.56h-32.872H180.796z"/>
		</g>
	</g>
</g>
</svg>
