<?xml version="1.0" encoding="iso-8859-1"?>
<!-- Generator: Adobe Illustrator 16.0.0, SVG Export Plug-In . SVG Version: 6.00 Build 0)  -->
<!DOCTYPE svg PUBLIC "-//W3C//DTD SVG 1.1//EN" "http://www.w3.org/Graphics/SVG/1.1/DTD/svg11.dtd">
<svg version="1.1" xmlns="http://www.w3.org/2000/svg" xmlns:xlink="http://www.w3.org/1999/xlink" x="0px" y="0px" width="512px"
	 height="512px" viewBox="0 0 512 512" style="enable-background:new 0 0 512 512;" xml:space="preserve">
<g id="Guides_For_Artboard">
</g>
<g id="Artwork">
</g>
<g id="Layer_3">
	<g>
		<circle style="fill:#F6E0C2;" cx="255.303" cy="255.997" r="245.001"/>
		<g>
			<path style="fill:none;" d="M255.302,199.247c-0.973,0-1.938,0.025-2.899,0.073c-0.32,0.016-0.636,0.05-0.955,0.072
				c-0.637,0.042-1.274,0.081-1.905,0.145c-0.383,0.038-0.76,0.096-1.141,0.143c-0.561,0.068-1.123,0.129-1.679,0.213
				c-0.401,0.061-0.796,0.141-1.194,0.21c-0.527,0.091-1.059,0.176-1.581,0.282c-0.406,0.083-0.806,0.184-1.208,0.275
				c-0.508,0.114-1.018,0.222-1.52,0.351c-0.407,0.104-0.808,0.226-1.212,0.338c-0.488,0.137-0.979,0.266-1.463,0.416
				c-0.406,0.125-0.805,0.268-1.208,0.402c-0.471,0.157-0.945,0.309-1.412,0.478c-0.4,0.146-0.794,0.308-1.19,0.462
				c-0.458,0.178-0.919,0.351-1.37,0.54c-0.394,0.165-0.779,0.345-1.168,0.519c-0.445,0.199-0.894,0.393-1.332,0.603
				c-0.386,0.185-0.764,0.383-1.145,0.576c-0.431,0.218-0.864,0.431-1.288,0.66c-0.377,0.203-0.745,0.42-1.117,0.631
				c-0.417,0.237-0.837,0.47-1.248,0.717c-0.366,0.221-0.724,0.454-1.085,0.683c-0.403,0.256-0.81,0.508-1.207,0.773
				c-0.354,0.238-0.7,0.487-1.049,0.732c-0.391,0.274-0.784,0.546-1.167,0.83c-0.343,0.253-0.676,0.518-1.012,0.779
				c-0.377,0.292-0.755,0.582-1.124,0.883c-0.33,0.27-0.65,0.55-0.975,0.827c-0.361,0.309-0.726,0.616-1.079,0.935
				c-0.316,0.285-0.624,0.579-0.935,0.871c-0.346,0.325-0.693,0.649-1.031,0.983c-0.303,0.3-0.598,0.609-0.895,0.917
				c-0.33,0.341-0.66,0.68-0.981,1.03c-0.289,0.314-0.568,0.637-0.851,0.957c-0.313,0.356-0.628,0.712-0.932,1.076
				c-0.274,0.328-0.539,0.663-0.805,0.996c-0.297,0.372-0.595,0.743-0.882,1.122c-0.258,0.34-0.506,0.687-0.757,1.033
				c-0.279,0.386-0.559,0.771-0.828,1.165c-0.241,0.352-0.474,0.71-0.707,1.067c-0.262,0.4-0.523,0.801-0.774,1.209
				c-0.225,0.362-0.439,0.731-0.655,1.1c-0.243,0.414-0.485,0.828-0.719,1.249c-0.206,0.374-0.404,0.753-0.604,1.132
				c-0.223,0.427-0.445,0.854-0.658,1.287c-0.189,0.384-0.369,0.773-0.55,1.163c-0.204,0.439-0.406,0.879-0.599,1.324
				c-0.17,0.392-0.331,0.789-0.492,1.186c-0.184,0.452-0.366,0.906-0.538,1.364c-0.151,0.401-0.294,0.806-0.436,1.21
				c-0.162,0.464-0.322,0.929-0.473,1.398c-0.132,0.409-0.255,0.821-0.377,1.234c-0.141,0.475-0.278,0.952-0.407,1.432
				c-0.11,0.415-0.214,0.833-0.315,1.252c-0.118,0.487-0.233,0.976-0.339,1.468c-0.09,0.42-0.174,0.843-0.254,1.267
				c-0.096,0.499-0.187,0.999-0.269,1.502c-0.069,0.425-0.132,0.853-0.192,1.28c-0.07,0.509-0.137,1.02-0.194,1.533
				c-0.048,0.43-0.09,0.861-0.129,1.294c-0.046,0.52-0.087,1.041-0.118,1.564c-0.027,0.433-0.048,0.867-0.064,1.303
				c-0.029,0.741-0.057,1.483-0.057,2.232c0,31.342,25.406,56.75,56.748,56.75c31.344,0,56.75-25.408,56.75-56.75
				S286.646,199.247,255.302,199.247z"/>
			<path style="fill:#664B3A;" d="M215.403,215.65c0.338-0.334,0.686-0.658,1.031-0.983
				C216.089,214.992,215.741,215.316,215.403,215.65z"/>
			<path style="fill:#664B3A;" d="M213.527,217.597c0.321-0.35,0.651-0.688,0.981-1.03
				C214.179,216.908,213.849,217.247,213.527,217.597z"/>
			<path style="fill:#664B3A;" d="M219.423,212.034c0.369-0.301,0.747-0.591,1.124-0.883
				C220.17,211.443,219.792,211.733,219.423,212.034z"/>
			<path style="fill:#664B3A;" d="M211.745,219.63c0.304-0.364,0.618-0.72,0.932-1.076
				C212.363,218.91,212.049,219.266,211.745,219.63z"/>
			<path style="fill:#664B3A;" d="M203.208,233.477c0.192-0.445,0.395-0.885,0.599-1.324
				C203.603,232.592,203.4,233.031,203.208,233.477z"/>
			<path style="fill:#664B3A;" d="M208.474,223.946c0.27-0.394,0.549-0.779,0.828-1.165
				C209.022,223.167,208.743,223.553,208.474,223.946z"/>
			<path style="fill:#664B3A;" d="M210.059,221.748c0.287-0.379,0.585-0.75,0.882-1.122
				C210.644,220.998,210.347,221.369,210.059,221.748z"/>
			<path style="fill:#664B3A;" d="M205.618,228.571c0.233-0.42,0.476-0.834,0.719-1.249
				C206.094,227.736,205.852,228.15,205.618,228.571z"/>
			<path style="fill:#664B3A;" d="M204.356,230.99c0.213-0.433,0.436-0.86,0.658-1.287
				C204.792,230.13,204.569,230.557,204.356,230.99z"/>
			<path style="fill:#664B3A;" d="M221.559,210.372c0.383-0.284,0.776-0.556,1.167-0.83
				C222.335,209.816,221.941,210.088,221.559,210.372z"/>
			<path style="fill:#664B3A;" d="M206.992,226.223c0.251-0.408,0.513-0.809,0.774-1.209
				C207.505,225.414,207.243,225.815,206.992,226.223z"/>
			<path style="fill:#664B3A;" d="M217.369,213.796c0.354-0.318,0.718-0.625,1.079-0.935
				C218.087,213.17,217.723,213.478,217.369,213.796z"/>
			<path style="fill:#664B3A;" d="M238.545,201.765c0.483-0.149,0.975-0.279,1.463-0.416
				C239.52,201.486,239.028,201.615,238.545,201.765z"/>
			<path style="fill:#664B3A;" d="M235.925,202.645c0.467-0.169,0.941-0.32,1.412-0.478
				C236.866,202.324,236.392,202.476,235.925,202.645z"/>
			<path style="fill:#664B3A;" d="M241.22,201.011c0.502-0.128,1.012-0.236,1.52-0.351
				C242.231,200.774,241.722,200.882,241.22,201.011z"/>
			<path style="fill:#664B3A;" d="M223.774,208.81c0.397-0.266,0.804-0.518,1.207-0.773
				C224.578,208.292,224.172,208.544,223.774,208.81z"/>
			<path style="fill:#664B3A;" d="M246.723,199.893c0.556-0.084,1.118-0.146,1.679-0.213
				C247.841,199.748,247.278,199.809,246.723,199.893z"/>
			<path style="fill:#664B3A;" d="M249.542,199.537c0.631-0.064,1.269-0.103,1.905-0.145
				C250.811,199.435,250.173,199.473,249.542,199.537z"/>
			<path style="fill:#664B3A;" d="M233.364,203.647c0.451-0.189,0.912-0.362,1.37-0.54
				C234.276,203.285,233.815,203.458,233.364,203.647z"/>
			<path style="fill:#664B3A;" d="M226.066,207.353c0.411-0.248,0.831-0.48,1.248-0.717
				C226.897,206.873,226.478,207.105,226.066,207.353z"/>
			<path style="fill:#664B3A;" d="M228.432,206.004c0.424-0.229,0.857-0.442,1.288-0.66
				C229.289,205.563,228.855,205.776,228.432,206.004z"/>
			<path style="fill:#664B3A;" d="M230.864,204.769c0.438-0.21,0.887-0.403,1.332-0.603
				C231.751,204.365,231.304,204.559,230.864,204.769z"/>
			<path style="fill:#664B3A;" d="M243.947,200.385c0.522-0.106,1.054-0.191,1.581-0.282
				C245.001,200.194,244.47,200.279,243.947,200.385z"/>
			<path style="fill:#664B3A;" d="M396.188,261.358c-0.04,1.05-0.089,2.098-0.151,3.142
				C396.1,263.456,396.149,262.408,396.188,261.358z"/>
			<path style="fill:#664B3A;" d="M199.309,246.79c0.082-0.503,0.173-1.003,0.269-1.502
				C199.481,245.787,199.391,246.287,199.309,246.79z"/>
			<path style="fill:#664B3A;" d="M252.402,199.32c0.961-0.048,1.927-0.073,2.899-0.073
				C254.329,199.247,253.363,199.272,252.402,199.32z"/>
			<path style="fill:#664B3A;" d="M201.27,238.635c0.15-0.469,0.311-0.934,0.473-1.398
				C201.58,237.701,201.42,238.166,201.27,238.635z"/>
			<path style="fill:#664B3A;" d="M200.485,241.301c0.129-0.48,0.267-0.957,0.407-1.432
				C200.752,240.344,200.614,240.82,200.485,241.301z"/>
			<path style="fill:#664B3A;" d="M395.966,265.625c-0.08,1.186-0.174,2.367-0.283,3.545
				C395.791,267.992,395.886,266.811,395.966,265.625z"/>
			<path style="fill:#664B3A;" d="M198.922,249.604c0.058-0.513,0.124-1.024,0.194-1.533
				C199.045,248.58,198.979,249.09,198.922,249.604z"/>
			<path style="fill:#664B3A;" d="M396.3,255.997c0,1.405-0.026,2.803-0.067,4.198C396.273,258.8,396.3,257.401,396.3,255.997z"/>
			<path style="fill:#664B3A;" d="M199.831,244.021c0.105-0.492,0.221-0.98,0.339-1.468
				C200.052,243.04,199.937,243.528,199.831,244.021z"/>
			<path style="fill:#664B3A;" d="M198.675,252.462c0.031-0.523,0.072-1.045,0.118-1.564
				C198.747,251.417,198.706,251.938,198.675,252.462z"/>
			<path style="fill:#664B3A;" d="M202.178,236.026c0.172-0.458,0.354-0.912,0.538-1.364
				C202.532,235.114,202.35,235.568,202.178,236.026z"/>
			<path style="fill:#664B3A;" d="M395.151,274.024c-18.158-12.373-39.842-19.197-62.037-19.197c-7.113,0-14.174,0.704-21.082,2.063
				c0.006-0.298,0.02-0.594,0.02-0.893c0,31.342-25.406,56.75-56.75,56.75c-31.342,0-56.748-25.408-56.748-56.75
				c0-0.749,0.027-1.491,0.057-2.232c-0.011,0.277-0.034,0.551-0.041,0.829c-11.582-4.057-23.855-6.203-36.291-6.203
				c-16.693,0-33.096,3.863-47.93,11.039c1.824,76.284,64.232,137.563,140.953,137.563c73.237,0,133.426-55.839,140.331-127.265
				C395.493,271.167,395.334,272.599,395.151,274.024z"/>
			<path style="fill:#D46A56;" d="M198.569,254.594c0.007-0.278,0.03-0.552,0.041-0.829c0.017-0.436,0.037-0.87,0.064-1.303
				c0.031-0.523,0.072-1.045,0.118-1.564c0.039-0.433,0.081-0.864,0.129-1.294c0.058-0.513,0.123-1.023,0.194-1.533
				c0.061-0.428,0.123-0.855,0.192-1.28c0.082-0.503,0.173-1.003,0.269-1.502c0.08-0.424,0.164-0.847,0.254-1.267
				c0.105-0.492,0.221-0.98,0.339-1.468c0.102-0.418,0.205-0.837,0.315-1.252c0.129-0.48,0.267-0.957,0.407-1.432
				c0.122-0.413,0.245-0.825,0.377-1.234c0.15-0.469,0.311-0.934,0.473-1.398c0.142-0.405,0.284-0.81,0.436-1.21
				c0.172-0.458,0.354-0.912,0.538-1.364c0.161-0.397,0.322-0.793,0.492-1.186c0.192-0.445,0.395-0.885,0.599-1.324
				c0.181-0.389,0.36-0.778,0.55-1.163c0.213-0.433,0.436-0.86,0.658-1.287c0.199-0.379,0.397-0.758,0.604-1.132
				c0.233-0.42,0.476-0.834,0.719-1.249c0.216-0.368,0.431-0.737,0.655-1.1c0.251-0.408,0.513-0.809,0.774-1.209
				c0.233-0.357,0.466-0.716,0.707-1.067c0.27-0.394,0.549-0.779,0.828-1.165c0.251-0.346,0.499-0.693,0.757-1.033
				c0.288-0.379,0.585-0.75,0.882-1.122c0.266-0.333,0.53-0.668,0.805-0.996c0.304-0.364,0.618-0.72,0.932-1.076
				c0.282-0.32,0.562-0.643,0.851-0.957c0.321-0.35,0.651-0.688,0.981-1.03c0.297-0.307,0.592-0.617,0.895-0.917
				c0.338-0.334,0.686-0.658,1.031-0.983c0.311-0.292,0.618-0.586,0.935-0.871c0.354-0.318,0.718-0.625,1.079-0.935
				c0.324-0.277,0.645-0.557,0.975-0.827c0.369-0.301,0.747-0.591,1.124-0.883c0.336-0.261,0.669-0.526,1.012-0.779
				c0.383-0.284,0.776-0.556,1.167-0.83c0.349-0.245,0.694-0.495,1.049-0.732c0.397-0.266,0.804-0.518,1.207-0.773
				c0.361-0.229,0.719-0.462,1.085-0.683c0.411-0.248,0.831-0.48,1.248-0.717c0.372-0.211,0.74-0.428,1.117-0.631
				c0.424-0.229,0.857-0.442,1.288-0.66c0.381-0.193,0.759-0.392,1.145-0.576c0.439-0.21,0.887-0.403,1.332-0.603
				c0.389-0.174,0.774-0.354,1.168-0.519c0.451-0.189,0.912-0.362,1.37-0.54c0.396-0.155,0.79-0.316,1.19-0.462
				c0.467-0.169,0.941-0.32,1.412-0.478c0.403-0.134,0.802-0.277,1.208-0.402c0.483-0.149,0.975-0.279,1.463-0.416
				c0.404-0.113,0.805-0.235,1.212-0.338c0.502-0.128,1.012-0.236,1.52-0.351c0.402-0.091,0.802-0.192,1.208-0.275
				c0.522-0.106,1.054-0.191,1.581-0.282c0.398-0.069,0.793-0.149,1.194-0.21c0.556-0.084,1.118-0.146,1.679-0.213
				c0.381-0.046,0.758-0.104,1.141-0.143c0.631-0.064,1.269-0.103,1.905-0.145c0.319-0.021,0.635-0.056,0.955-0.072
				c0.961-0.048,1.927-0.073,2.899-0.073c31.344,0,56.75,25.408,56.75,56.75c0,0.299-0.014,0.595-0.02,0.893
				c6.908-1.359,13.969-2.063,21.082-2.063c22.195,0,43.879,6.824,62.037,19.197c0.183-1.425,0.342-2.857,0.481-4.295
				c0.018-0.186,0.032-0.373,0.05-0.559c0.109-1.178,0.203-2.359,0.283-3.545c0.025-0.375,0.049-0.75,0.071-1.125
				c0.063-1.044,0.111-2.092,0.151-3.142c0.015-0.388,0.033-0.775,0.044-1.163c0.041-1.395,0.067-2.793,0.067-4.198
				C396.3,178.126,333.173,115,255.302,115c-77.869,0-140.996,63.126-140.996,140.997c0,1.147,0.016,2.292,0.043,3.434v0
				c14.834-7.176,31.236-11.039,47.93-11.039C174.714,248.391,186.987,250.537,198.569,254.594z"/>
		</g>
	</g>
</g>
</svg>
