<?xml version="1.0" encoding="iso-8859-1"?>
<!-- Generator: Adobe Illustrator 16.0.0, SVG Export Plug-In . SVG Version: 6.00 Build 0)  -->
<!DOCTYPE svg PUBLIC "-//W3C//DTD SVG 1.1//EN" "http://www.w3.org/Graphics/SVG/1.1/DTD/svg11.dtd">
<svg version="1.1" xmlns="http://www.w3.org/2000/svg" xmlns:xlink="http://www.w3.org/1999/xlink" x="0px" y="0px" width="512px"
	 height="512px" viewBox="0 0 512 512" style="enable-background:new 0 0 512 512;" xml:space="preserve">
<g id="Guides_For_Artboard">
</g>
<g id="Artwork">
</g>
<g id="Layer_3">
	<g>
		<circle style="fill:#D46A56;" cx="255.094" cy="255.699" r="245"/>
		<g>
			<path style="fill:#664B3A;" d="M344.802,200.22c-3.726-5.191-13.128-15.507-31.374-20.063
				c-24.899-6.217-105.812,13.038-92.91,23.4c8.44,6.779,14.523,10.69,14.814,16.316c19.068-8.007,39.642-14.461,60.577-17.396
				C313.571,200.003,329.938,199.385,344.802,200.22z"/>
			<path style="fill:#664B3A;" d="M138.001,281.463c-0.919-2.828,3.836-5.591,3.836-5.591c0.822-0.652,1.727-1.362,2.695-2.116
				c-10.662-11.023-40.14-27.796-71.938-28.554c-11.25,0-13.28,10.241-12.5,14c2.01,9.688,11.537,23.765,29.994,25.87
				c1.664,0.19,1.654,1.115,0.035,1.675c-16.631,5.756-22.213,20.609-22.529,30.706c-0.196,6.263,7.134,10.099,12.076,8.98
				c37.157-8.415,59.918-28.247,66.831-39.688c-0.698-0.337-1.158-0.576-1.33-0.691C145.171,286.052,138.92,284.291,138.001,281.463
				z"/>
			<path style="fill:#F6E0C2;" d="M379.425,205.295c0.237,0.057,0.469,0.117,0.704,0.175
				C379.896,205.411,379.659,205.354,379.425,205.295z"/>
			<path style="fill:#F6E0C2;" d="M433.222,238.636c-0.105-0.196-0.22-0.392-0.33-0.588c0.106,0.197,0.22,0.391,0.323,0.59
				C433.217,238.638,433.22,238.637,433.222,238.636z"/>
			<path style="fill:#F6E0C2;" d="M368.818,203.009c-0.357-0.065-0.725-0.122-1.085-0.185c3.945,0.726,7.747,1.523,11.395,2.399
				C375.813,204.401,372.381,203.657,368.818,203.009z"/>
			<path style="fill:#F6E0C2;" d="M414.081,289.074c-2.893,2.344-6.056,4.636-9.475,6.86
				C408.027,293.71,411.186,291.417,414.081,289.074z"/>
			<path style="fill:#F6E0C2;" d="M344.344,253.452c-2.592-24.478,10.245-38.744,22.91-50.709
				c-7.035-1.215-14.526-2.078-22.452-2.523c-14.864-0.835-31.23-0.216-48.893,2.257c-20.936,2.935-41.509,9.389-60.577,17.396
				c-41.129,17.272-75.236,41.78-90.8,53.883c-0.969,0.753-1.873,1.463-2.695,2.116c0,0-4.755,2.763-3.836,5.591
				s7.17,4.589,7.17,4.589c0.172,0.115,0.632,0.354,1.33,0.691c11.997,5.791,98.826,42.248,162.297,37.712
				c27.972-1.991,51.876-7.818,71.186-15.759C359.594,298.702,346.92,277.924,344.344,253.452z M313.265,297.914
				c-8.345,9.211-23.219,16.269-40.407,15.55s-31.686-14.377-29.164-24.292s20.875,0.901,38.105-1.687
				c15.448-2.321,23.265-15.048,33.641-12.934C325.814,276.665,321.609,288.703,313.265,297.914z"/>
			<path style="fill:#F6E0C2;" d="M414.157,289.012c6.917-5.609,12.312-11.499,16.094-17.386c-0.005-0.003-0.009-0.005-0.014-0.007
				C426.458,277.507,421.068,283.4,414.157,289.012z"/>
			<path style="fill:#F6E0C2;" d="M396.866,300.597c-1.196,0.667-2.419,1.324-3.665,1.972
				C394.447,301.92,395.67,301.263,396.866,300.597z"/>
			<path style="fill:#F6E0C2;" d="M384.076,306.945c-1.343,0.593-2.702,1.18-4.093,1.751
				C381.374,308.125,382.733,307.539,384.076,306.945z"/>
			<path style="fill:#F6E0C2;" d="M403.965,296.345c-0.89,0.571-1.798,1.137-2.723,1.698
				C402.167,297.482,403.074,296.916,403.965,296.345z"/>
			<path style="fill:#F6E0C2;" d="M392.271,303.042c-0.937,0.479-1.887,0.955-2.852,1.424
				C390.385,303.997,391.333,303.521,392.271,303.042z"/>
			<path style="fill:#F6E0C2;" d="M400.405,298.55c-1.003,0.599-2.027,1.192-3.07,1.779
				C398.378,299.742,399.401,299.149,400.405,298.55z"/>
			<path style="fill:#F6E0C2;" d="M388.105,305.096c-0.909,0.431-1.831,0.857-2.764,1.278
				C386.274,305.953,387.196,305.527,388.105,305.096z"/>
			<path style="fill:#664B3A;" d="M315.439,274.551c-10.376-2.114-18.192,10.613-33.641,12.934
				c-17.23,2.587-35.584-8.228-38.105,1.687s11.976,23.573,29.164,24.292s32.063-6.338,40.407-15.55
				S325.814,276.665,315.439,274.551z"/>
			<path style="fill:#664B3A;" d="M443.766,254.746c1.808-2.034,2.819-4.768,2.508-7.686c-0.581-5.493-5.501-9.474-10.995-8.89
				c-0.71,0.07-2.063,0.467-2.387-0.14c-8.47-15.735-26.674-26.164-52.763-32.578c-0.235-0.058-0.467-0.118-0.704-0.175
				c-0.099-0.024-0.198-0.048-0.297-0.072c-3.647-0.876-7.449-1.673-11.395-2.399c-0.158-0.029-0.313-0.06-0.472-0.089
				c-0.003,0.002-0.005,0.005-0.008,0.007c-12.665,11.965-25.502,26.232-22.91,50.709c2.576,24.472,15.25,45.25,35.64,55.245
				c1.391-0.572,2.75-1.158,4.093-1.751c0.426-0.188,0.844-0.38,1.266-0.571c0.933-0.421,1.854-0.847,2.764-1.278
				c0.439-0.209,0.879-0.418,1.313-0.63c0.965-0.469,1.915-0.944,2.852-1.424c0.309-0.158,0.624-0.313,0.931-0.473
				c1.246-0.648,2.469-1.306,3.665-1.972c0.158-0.088,0.311-0.179,0.469-0.268c1.043-0.587,2.067-1.18,3.07-1.779
				c0.282-0.168,0.56-0.338,0.837-0.507c0.925-0.561,1.833-1.126,2.723-1.698c0.214-0.137,0.43-0.274,0.642-0.412
				c3.419-2.224,6.582-4.516,9.475-6.86c0.025-0.021,0.051-0.042,0.076-0.062c6.54-5.31,11.718-10.873,15.457-16.444
				c0.479-0.784,1.323-0.582,1.681-0.431c1.493,0.627,3.152,0.902,4.876,0.723c5.5-0.58,9.475-5.504,8.901-10.988
				c-0.183-1.676-0.581-3.355-1.662-4.491C442.708,256.625,442.667,255.982,443.766,254.746z M380.707,240.809
				c-3.829,0.401-7.256-2.374-7.668-6.203c-0.397-3.83,2.378-7.258,6.203-7.67c3.824-0.401,7.26,2.375,7.663,6.2
				C387.311,236.974,384.536,240.4,380.707,240.809z"/>
			<g>
				<g>
					<path style="fill:#F8F8F8;" d="M379.242,226.954c-3.825,0.412-6.601,3.84-6.203,7.67c0.412,3.829,3.839,6.604,7.668,6.203
						c3.829-0.408,6.604-3.835,6.198-7.673C386.502,229.329,383.066,226.552,379.242,226.954z M380.379,237.724
						c-2.117,0.222-4.011-1.312-4.238-3.428c-0.22-2.117,1.314-4.012,3.428-4.239c2.114-0.222,4.013,1.313,4.236,3.426
						C384.028,235.604,382.495,237.498,380.379,237.724z"/>
				</g>
			</g>
			<g>
				<path style="fill:#E6A52E;" d="M379.568,230.057c-2.113,0.228-3.647,2.123-3.428,4.239c0.228,2.116,2.121,3.649,4.238,3.428
					c2.116-0.226,3.649-2.119,3.426-4.241C383.581,231.37,381.683,229.835,379.568,230.057z"/>
			</g>
		</g>
	</g>
</g>
</svg>
