<?xml version="1.0" encoding="iso-8859-1"?>
<!-- Generator: Adobe Illustrator 16.0.0, SVG Export Plug-In . SVG Version: 6.00 Build 0)  -->
<!DOCTYPE svg PUBLIC "-//W3C//DTD SVG 1.1//EN" "http://www.w3.org/Graphics/SVG/1.1/DTD/svg11.dtd">
<svg version="1.1" xmlns="http://www.w3.org/2000/svg" xmlns:xlink="http://www.w3.org/1999/xlink" x="0px" y="0px" width="512px"
	 height="512px" viewBox="0 0 512 512" style="enable-background:new 0 0 512 512;" xml:space="preserve">
<g id="Guides_For_Artboard">
</g>
<g id="Artwork">
</g>
<g id="Layer_3">
	<g>
		<circle style="fill:#F6E0C2;" cx="255.116" cy="257" r="245"/>
		<g>
			<rect x="310.049" y="316.382" style="fill:none;" width="0" height="9.544"/>
			<path style="fill:#735542;" d="M386.033,321.154h-34.645v19.887h-0.074c-0.813,9.347-8.652,16.681-18.209,16.681
				c-9.559,0-17.396-7.333-18.209-16.681h-0.075v-19.887h-9.544v46.064h-0.042c-0.442,5.104-4.724,9.107-9.941,9.107
				c-5.219,0-9.499-4.004-9.942-9.107h-0.042v-46.064h-161.11c-19.81,0-35.926,16.117-35.926,35.926
				c0,19.811,16.116,35.927,35.926,35.927h261.834c19.81,0,35.926-16.116,35.926-35.927
				C421.959,337.271,405.843,321.154,386.033,321.154z"/>
			<path style="fill:#735542;" d="M387.649,232.3c0-0.133-0.005-0.265-0.014-0.396c-0.104-35.406-14.063-64.417-40.388-83.916
				c-23.841-17.661-56.794-26.995-95.298-26.995s-71.457,9.334-95.299,26.995c-26.422,19.572-40.388,48.727-40.388,84.312
				c0,1.331,0.455,2.552,1.211,3.529h268.964C387.194,234.853,387.649,233.631,387.649,232.3z"/>
			<path style="fill:#D46A56;" d="M394.051,294.851c0.511,0,1.01,0.052,1.491,0.151c7.901-4.291,13.265-12.661,13.265-22.284
				s-5.363-17.994-13.265-22.284c-0.481,0.099-0.98,0.151-1.491,0.151H109.849c-0.511,0-1.009-0.052-1.491-0.151
				c-7.901,4.291-13.265,12.661-13.265,22.284s5.364,17.993,13.265,22.284c0.481-0.099,0.98-0.151,1.491-0.151H394.051z"/>
			<path style="fill:#C5C158;" d="M394.051,250.584c0.511,0,1.01-0.052,1.491-0.151c3.36-0.69,5.888-3.663,5.888-7.227
				c0-4.075-3.305-7.377-7.379-7.377h-7.612H117.475h-7.626c-4.075,0-7.378,3.303-7.378,7.377c0,3.564,2.527,6.538,5.887,7.227
				c0.481,0.099,0.98,0.151,1.491,0.151H394.051z"/>
			<path style="fill:#C5C158;" d="M394.051,306.398c1.734,0,3.325,0.603,4.585,1.604c1.7-1.352,2.794-3.433,2.794-5.774
				c0-3.563-2.527-6.537-5.888-7.227c-0.481-0.099-0.98-0.151-1.491-0.151H109.849c-0.511,0-1.009,0.052-1.491,0.151
				c-3.36,0.689-5.887,3.663-5.887,7.227c0,2.341,1.093,4.422,2.793,5.774c1.259-1.001,2.851-1.604,4.585-1.604H394.051z"/>
			<path style="fill:#E6A52E;" d="M305.277,320.512v0.642h9.544v-10.265h36.567v10.265h42.662c4.074,0,7.379-3.303,7.379-7.377
				c0-2.34-1.094-4.422-2.794-5.774c-1.26-1.001-2.851-1.604-4.585-1.604H109.849c-1.734,0-3.326,0.603-4.585,1.604
				c-1.7,1.352-2.793,3.434-2.793,5.774c0,4.074,3.303,7.377,7.378,7.377H285.31v-0.642H305.277z"/>
			<path style="fill:#E6A52E;" d="M314.821,310.889v10.265v0v19.887h0.075c0.813,9.347,8.65,16.681,18.209,16.681
				c9.557,0,17.396-7.333,18.209-16.681h0.074v-19.887v0v-10.265H314.821z"/>
			<path style="fill:#E6A52E;" d="M285.352,367.219c0.443,5.104,4.724,9.107,9.942,9.107c5.218,0,9.499-4.004,9.941-9.107h0.042
				v-46.064v0v-0.642H285.31v0.642v0v46.064H285.352z"/>
		</g>
	</g>
</g>
</svg>
