<?xml version="1.0" encoding="iso-8859-1"?>
<!-- Generator: Adobe Illustrator 16.0.0, SVG Export Plug-In . SVG Version: 6.00 Build 0)  -->
<!DOCTYPE svg PUBLIC "-//W3C//DTD SVG 1.1//EN" "http://www.w3.org/Graphics/SVG/1.1/DTD/svg11.dtd">
<svg version="1.1" xmlns="http://www.w3.org/2000/svg" xmlns:xlink="http://www.w3.org/1999/xlink" x="0px" y="0px" width="512px"
	 height="512px" viewBox="0 0 512 512" style="enable-background:new 0 0 512 512;" xml:space="preserve">
<g id="Guides_For_Artboard">
</g>
<g id="Artwork">
</g>
<g id="Layer_3">
	<g>
		<circle style="fill:#F6E0C2;" cx="255.866" cy="253.944" r="245"/>
		<g>
			<path style="fill:#735542;" d="M87.843,315.638c0,19.95,16.23,36.18,36.181,36.18h263.685c19.95,0,36.181-16.23,36.181-36.18
				c0-13.643-7.592-25.542-18.771-31.705H106.614C95.435,290.096,87.843,301.996,87.843,315.638z"/>
			<path style="fill:#735542;" d="M423.889,192.25c0-19.949-16.231-36.181-36.181-36.181H124.023
				c-19.95,0-36.181,16.231-36.181,36.181c0,16.032,10.486,29.655,24.958,34.389h286.13
				C413.402,221.905,423.889,208.283,423.889,192.25z"/>
			<path style="fill:#E6A52E;" d="M448.786,255.287c0-15.82-12.827-28.647-28.647-28.647h-21.208h-286.13H91.593
				c-15.821,0-28.647,12.827-28.647,28.647c0,15.822,12.826,28.647,28.647,28.647h15.021h298.504h15.021
				C435.959,283.934,448.786,271.108,448.786,255.287z M324.413,262.163c-0.731-1.333-1.659-3.026-2.536-4.463
				c-1.102,1.419-2.309,3.144-3.253,4.493c-5.586,7.984-14.027,20.049-29.062,20.049c-14.844,0-22.223-11.545-27.106-19.185
				c-1.605-2.511-4.271-6.683-5.638-7.419l-1.901-0.001c-1.366,0.732-4.035,4.908-5.641,7.421
				c-4.883,7.64-12.262,19.185-27.106,19.185c-15.034,0-23.476-12.064-29.062-20.049c-0.944-1.349-2.151-3.073-3.253-4.493
				c-0.877,1.437-1.805,3.13-2.536,4.463c-4.385,7.996-11.011,20.079-24.84,20.079c-13.113,0-22.583-11.247-30.191-20.283
				c-2.192-2.604-5.437-6.458-7.033-7.678c-5.98-1.961-9.583-8.197-8.143-14.45c1.525-6.623,8.131-10.755,14.752-9.23
				c7.684,1.77,13.302,8.442,19.251,15.508c2.762,3.28,7.59,9.016,10.576,10.964c1.277-1.688,2.952-4.742,4.049-6.742
				c4.215-7.687,10.586-19.304,23.696-19.304c11.901,0,18.52,9.458,23.837,17.059c2.661,3.802,6.68,9.547,8.897,9.547
				c1.366,0,4.498-4.9,6.369-7.828c4.78-7.478,12.002-18.777,26.365-18.777h1.926c14.363,0,21.585,11.3,26.365,18.777
				c1.871,2.928,5.003,7.828,6.369,7.828c2.217,0,6.236-5.745,8.896-9.547c5.318-7.601,11.936-17.059,23.837-17.059
				c13.11,0,19.48,11.617,23.696,19.304c1.097,2,2.771,5.054,4.049,6.742c2.985-1.948,7.814-7.684,10.576-10.964
				c5.948-7.065,11.567-13.738,19.25-15.508c6.623-1.522,13.228,2.608,14.752,9.23c1.44,6.253-2.163,12.489-8.143,14.45
				c-1.596,1.221-4.841,5.074-7.033,7.678c-7.608,9.037-17.078,20.283-30.191,20.283
				C335.424,282.241,328.797,270.158,324.413,262.163z"/>
			<path style="fill:#D46A56;" d="M379.444,261.958c2.192-2.604,5.437-6.458,7.033-7.678c5.98-1.961,9.583-8.197,8.143-14.45
				c-1.524-6.622-8.129-10.752-14.752-9.23c-7.684,1.77-13.302,8.442-19.25,15.508c-2.762,3.28-7.591,9.016-10.576,10.964
				c-1.278-1.688-2.952-4.742-4.049-6.742c-4.215-7.687-10.586-19.304-23.696-19.304c-11.902,0-18.52,9.458-23.837,17.059
				c-2.66,3.802-6.68,9.547-8.896,9.547c-1.366,0-4.498-4.9-6.369-7.828c-4.779-7.478-12.002-18.777-26.365-18.777h-1.926
				c-14.363,0-21.585,11.3-26.365,18.777c-1.871,2.928-5.003,7.828-6.369,7.828c-2.217,0-6.236-5.745-8.897-9.547
				c-5.317-7.601-11.936-17.059-23.837-17.059c-13.11,0-19.48,11.617-23.696,19.304c-1.097,2-2.771,5.054-4.049,6.742
				c-2.986-1.948-7.814-7.684-10.576-10.964c-5.949-7.065-11.567-13.738-19.251-15.508c-6.621-1.524-13.228,2.607-14.752,9.23
				c-1.44,6.253,2.163,12.489,8.143,14.45c1.596,1.221,4.841,5.074,7.033,7.678c7.608,9.037,17.078,20.283,30.191,20.283
				c13.829,0,20.456-12.083,24.84-20.079c0.731-1.333,1.659-3.026,2.536-4.463c1.102,1.419,2.309,3.144,3.253,4.493
				c5.586,7.984,14.027,20.049,29.062,20.049c14.844,0,22.223-11.545,27.106-19.185c1.606-2.513,4.275-6.689,5.641-7.421
				l1.901,0.001c1.367,0.737,4.033,4.909,5.638,7.419c4.883,7.64,12.262,19.185,27.106,19.185c15.034,0,23.476-12.064,29.062-20.049
				c0.944-1.349,2.151-3.073,3.253-4.493c0.877,1.437,1.805,3.13,2.536,4.463c4.385,7.996,11.011,20.079,24.84,20.079
				C362.366,282.241,371.835,270.995,379.444,261.958z"/>
		</g>
	</g>
</g>
</svg>
