<?xml version="1.0" encoding="iso-8859-1"?>
<!-- Generator: Adobe Illustrator 16.0.0, SVG Export Plug-In . SVG Version: 6.00 Build 0)  -->
<!DOCTYPE svg PUBLIC "-//W3C//DTD SVG 1.1//EN" "http://www.w3.org/Graphics/SVG/1.1/DTD/svg11.dtd">
<svg version="1.1" xmlns="http://www.w3.org/2000/svg" xmlns:xlink="http://www.w3.org/1999/xlink" x="0px" y="0px" width="512px"
	 height="512px" viewBox="0 0 512 512" style="enable-background:new 0 0 512 512;" xml:space="preserve">
<g id="Guides_For_Artboard">
</g>
<g id="Artwork">
</g>
<g id="Layer_3">
	<g>
		<path style="fill:#E6A52E;" d="M255.809,8.943c-135.31,0-245,109.69-245,245s109.69,245,245,245s245-109.69,245-245
			S391.118,8.943,255.809,8.943z"/>
		<g>
			<path style="fill:#735542;" d="M234.399,416.458c0,11.262,9.162,20.424,20.424,20.424c11.261,0,20.424-9.163,20.424-20.424
				v-99.983h-40.848V416.458z"/>
			<path style="fill:#D46A56;" d="M302.325,83.004H207.32c-13.955,0-25.268,11.313-25.268,25.268v182.937
				c0,13.955,11.313,25.267,25.268,25.267h27.079h40.848h27.078c13.955,0,25.268-11.312,25.268-25.267V108.271
				C327.593,94.317,316.28,83.004,302.325,83.004z M224.277,278.327c-6.278,0-11.386-4.564-11.386-10.175V133.606
				c0-5.611,5.107-10.175,11.386-10.175c6.277,0,11.385,4.564,11.385,10.175v134.546
				C235.662,273.763,230.555,278.327,224.277,278.327z M298.432,268.152c0,5.61-5.108,10.175-11.387,10.175
				c-6.277,0-11.385-4.564-11.385-10.175V133.606c0-5.611,5.107-10.175,11.385-10.175c6.278,0,11.387,4.564,11.387,10.175V268.152z"
				/>
			<path style="fill:#BB5E4B;" d="M235.662,133.606c0-5.611-5.107-10.175-11.385-10.175c-6.278,0-11.386,4.564-11.386,10.175
				v134.546c0,5.61,5.107,10.175,11.386,10.175c6.277,0,11.385-4.564,11.385-10.175V133.606z"/>
			<path style="fill:#BB5E4B;" d="M287.045,123.432c-6.277,0-11.385,4.564-11.385,10.175v134.546c0,5.61,5.107,10.175,11.385,10.175
				c6.278,0,11.387-4.564,11.387-10.175V133.606C298.432,127.996,293.323,123.432,287.045,123.432z"/>
		</g>
	</g>
</g>
</svg>
