<?xml version="1.0" encoding="iso-8859-1"?>
<!-- Generator: Adobe Illustrator 16.0.0, SVG Export Plug-In . SVG Version: 6.00 Build 0)  -->
<!DOCTYPE svg PUBLIC "-//W3C//DTD SVG 1.1//EN" "http://www.w3.org/Graphics/SVG/1.1/DTD/svg11.dtd">
<svg version="1.1" xmlns="http://www.w3.org/2000/svg" xmlns:xlink="http://www.w3.org/1999/xlink" x="0px" y="0px" width="512px"
	 height="512px" viewBox="0 0 512 512" style="enable-background:new 0 0 512 512;" xml:space="preserve">
<g id="Guides_For_Artboard">
</g>
<g id="Artwork">
</g>
<g id="Layer_3">
	<g>
		<circle style="fill:#F6E0C2;" cx="255.594" cy="255.997" r="245"/>
		<g>
			<path style="fill:#DEC8AE;" d="M255.077,251.463c-11.263,12.114-27.329,19.701-45.176,19.701c-4.417,0-8.722-0.474-12.876-1.356
				l34.546,143.655c0.143,0.73,0.319,1.449,0.519,2.157l0.088,0.362h0.015c3.447,11.666,14.236,20.181,27.02,20.181
				s23.571-8.516,27.02-20.181h0.015l0.088-0.362c0.199-0.708,0.375-1.427,0.519-2.157l34.774-144.606
				c-6.37,2.225-13.211,3.449-20.341,3.449C282.887,272.306,266.379,264.241,255.077,251.463z"/>
			<path style="fill:#D46A56;" d="M322.736,152.776c-3.759,27.778-24.335,50.204-51.15,56.692c0,0.004,0,0.008,0,0.012
				c0,16.222-6.271,30.972-16.509,41.983c11.302,12.777,27.81,20.843,46.209,20.843c7.13,0,13.971-1.224,20.341-3.449
				c24.07-8.407,41.345-31.297,41.345-58.235C362.972,184.098,346.229,161.49,322.736,152.776z"/>
			<path style="fill:#E6A52E;" d="M255.077,251.463c10.238-11.012,16.509-25.762,16.509-41.983c0-0.004,0-0.008,0-0.012
				c-5.13,1.241-10.481,1.916-15.992,1.916c-34.694,0-63.283-26.077-67.28-59.696c-23.418,8.752-40.097,31.321-40.097,57.792
				c0,29.65,20.924,54.405,48.809,60.329c4.154,0.882,8.459,1.356,12.876,1.356C227.748,271.165,243.814,263.578,255.077,251.463z"
				/>
			<path style="fill:#735542;" d="M255.594,211.384c5.511,0,10.862-0.674,15.992-1.916c26.815-6.489,47.392-28.914,51.15-56.692
				c0.406-3,0.635-6.058,0.635-9.169c0-37.433-30.345-67.777-67.777-67.777c-37.431,0-67.776,30.345-67.776,67.777
				c0,2.736,0.181,5.429,0.496,8.081C192.311,185.307,220.899,211.384,255.594,211.384z"/>
		</g>
	</g>
</g>
</svg>
