<?xml version="1.0" encoding="iso-8859-1"?>
<!-- Generator: Adobe Illustrator 16.0.0, SVG Export Plug-In . SVG Version: 6.00 Build 0)  -->
<!DOCTYPE svg PUBLIC "-//W3C//DTD SVG 1.1//EN" "http://www.w3.org/Graphics/SVG/1.1/DTD/svg11.dtd">
<svg version="1.1" xmlns="http://www.w3.org/2000/svg" xmlns:xlink="http://www.w3.org/1999/xlink" x="0px" y="0px" width="512px"
	 height="512px" viewBox="0 0 512 512" style="enable-background:new 0 0 512 512;" xml:space="preserve">
<g id="Guides_For_Artboard">
</g>
<g id="Artwork">
</g>
<g id="Layer_3">
	<g>
		<circle style="fill:#E6A52E;" cx="255.303" cy="255.971" r="245"/>
		<path style="fill:#F6E0C2;" d="M361.404,208.059c0-14.407-3.137-22.489-8.287-27.823c-0.306,0.471-0.675,0.942-1.142,1.415
			c-2.401,1.672-5.316,2.66-8.465,2.66c-4.503,0-8.529-2.014-11.25-5.182c-2.72,3.168-6.746,5.182-11.25,5.182
			c-4.503,0-8.529-2.014-11.25-5.182c-2.72,3.168-6.746,5.182-11.25,5.182c-4.503,0-8.529-2.014-11.25-5.182
			c-2.72,3.168-6.746,5.182-11.25,5.182c-4.503,0-8.529-2.014-11.25-5.182c-2.706,3.15-6.705,5.158-11.181,5.178
			c-4.476-0.02-8.475-2.027-11.181-5.178c-2.721,3.168-6.747,5.182-11.25,5.182c-4.504,0-8.53-2.014-11.25-5.182
			c-2.721,3.168-6.747,5.182-11.25,5.182c-4.504,0-8.53-2.014-11.25-5.182c-2.721,3.168-6.747,5.182-11.25,5.182
			c-4.504,0-8.53-2.014-11.25-5.182c-2.721,3.168-6.747,5.182-11.25,5.182c-3.148,0-6.063-0.988-8.465-2.66
			c-0.221-0.224-0.413-0.447-0.597-0.671c-2.151,3.364-4.164,8.8-4.543,17.51c-0.869,20.008-1.739,133.081-0.869,158.309
			c0.869,25.22,20,40.87,34.788,41.748c32.996,1.938,113.944-0.878,139.171-0.878c25.229,0,37.398-14.781,38.27-49.569
			C362.273,313.303,361.404,229.807,361.404,208.059z M257.438,371.14c-42.966,0-77.797-34.831-77.797-77.797
			c0-42.968,34.831-77.798,77.797-77.798s77.798,34.83,77.798,77.798C335.236,336.309,300.404,371.14,257.438,371.14z"/>
		<circle style="fill:#664B3A;" cx="257.438" cy="293.342" r="77.797"/>
		<path style="fill:#664B3A;" d="M163.649,184.311c4.503,0,8.529-2.014,11.25-5.182c2.72,3.168,6.746,5.182,11.25,5.182
			c4.503,0,8.529-2.014,11.25-5.182c2.72,3.168,6.746,5.182,11.25,5.182c4.503,0,8.529-2.014,11.25-5.182
			c2.72,3.168,6.746,5.182,11.25,5.182c4.503,0,8.529-2.014,11.25-5.182c2.706,3.15,6.705,5.158,11.181,5.178
			c4.476-0.02,8.475-2.027,11.181-5.178c2.721,3.168,6.747,5.182,11.25,5.182c4.504,0,8.53-2.014,11.25-5.182
			c2.721,3.168,6.747,5.182,11.25,5.182c4.504,0,8.53-2.014,11.25-5.182c2.721,3.168,6.747,5.182,11.25,5.182
			c4.504,0,8.53-2.014,11.25-5.182c2.721,3.168,6.747,5.182,11.25,5.182c3.148,0,6.063-0.988,8.465-2.66
			c0.467-0.473,0.836-0.944,1.142-1.415c5.15-7.955-11.664-15.684-11.623-25.396c0.313-7.432,6.028-11.926,5.182-25.465
			c-0.87-13.918-9.562-16.527-21.74-16.527c-6.176,0-39.01-0.068-71.355-0.135c-32.346,0.066-65.18,0.135-71.355,0.135
			c-12.179,0-20.87,2.609-21.74,16.527c-0.847,13.539,4.868,18.033,5.182,25.465c0.042,10.015-17.841,17.92-11.078,26.14
			c0.184,0.224,0.376,0.447,0.597,0.671C157.586,183.322,160.501,184.311,163.649,184.311z"/>
		<path style="fill:#D46A56;" d="M298.943,289.831c0.668,23.688-20.597,50.96-38.1,51.455
			c-17.426,0.491-40.271-25.538-40.938-49.225c-0.668-23.688,17.575-35.001,38.603-33.595
			C278.185,254.959,298.273,266.143,298.943,289.831z"/>
		<path style="fill:#C1B523;" d="M278.025,251.679c-2.33,0.643-5.552,1.396-8.496,2.413c-0.387,0.134-0.937-0.111-0.871-0.346
			c0.711-2.529,0.067-6.005-0.347-7.744c-0.159-0.67-0.702-0.806-1.366-0.324c-2.061,1.493-6.486,4.955-8.104,8.216
			c-0.056,0.112-0.313,0.447-0.681-0.065c-2.255-3.155-7.021-6.727-8.91-7.91c-0.453-0.284-0.83-0.006-0.954,0.697
			c-0.31,1.761-0.737,5.197,0.085,7.657c0.083,0.248,0.075,0.696-0.51,0.538c-3.203-0.865-6.716-1.531-9.178-2.069
			c-0.439-0.096-1.007,0.249-0.605,0.897c3.77,6.083,13.966,8.955,16.02,9.463c1.219,0.413,2.951,0.52,4.562,0.52
			c1.891,0,3.364-0.199,4.679-0.751c1.688-0.511,11.883-3.823,15.416-10.119C279.034,252.272,278.55,251.535,278.025,251.679z"/>
	</g>
</g>
</svg>
