<?xml version="1.0" encoding="iso-8859-1"?>
<!-- Generator: Adobe Illustrator 16.0.0, SVG Export Plug-In . SVG Version: 6.00 Build 0)  -->
<!DOCTYPE svg PUBLIC "-//W3C//DTD SVG 1.1//EN" "http://www.w3.org/Graphics/SVG/1.1/DTD/svg11.dtd">
<svg version="1.1" xmlns="http://www.w3.org/2000/svg" xmlns:xlink="http://www.w3.org/1999/xlink" x="0px" y="0px" width="512px"
	 height="512px" viewBox="0 0 512 512" style="enable-background:new 0 0 512 512;" xml:space="preserve">
<g id="Guides_For_Artboard">
</g>
<g id="Artwork">
</g>
<g id="Layer_3">
	<g>
		<circle style="fill:#E6A52E;" cx="255.997" cy="254.553" r="245"/>
		<g>
			<path style="fill:#735542;" d="M348.869,365.7c4.544,0,8.228-3.684,8.228-8.228s-3.684-8.228-8.228-8.228h-22.383V365.7H348.869z
				"/>
			<path style="fill:#735542;" d="M391.608,121.488c-17.979-17.024-40.288-14.667-77.809-14.667c7.008,0,12.687,5.679,12.687,12.686
				v22.155c15.76-0.387,35.604-0.956,41.572,4.697c2.508,2.374,3.778,7.048,3.778,13.892v117.976
				c0,9.458,7.669,17.125,17.126,17.125c9.458,0,17.126-7.667,17.126-17.125V160.251
				C406.089,143.628,401.216,130.587,391.608,121.488z"/>
			<polygon style="fill:#D46A56;" points="133.665,349.244 133.665,375.119 326.486,375.119 326.486,365.7 326.486,349.244 
				316.926,349.244 			"/>
			<path style="fill:#735542;" d="M133.665,386.905v2.805c0,7.006,5.68,12.686,12.687,12.686H313.8
				c7.008,0,12.687-5.68,12.687-12.686v-2.805v-11.786H133.665V386.905z"/>
			<path style="fill:#F6E0C2;" d="M313.8,106.822c-0.154,0-0.323,0-0.518,0c-3.924,0-14.012,0-14.174,0h-94.577h-58.18h-35.056
				c-1.9,0-3.662,1.002-4.633,2.637c-0.973,1.635-1.01,3.661-0.101,5.332c0,0,21.736,39.606,23.58,43.325s3.522,8.885,3.522,15.051
				c0,12.667,0,171.242,0,171.242v4.836h183.261h9.561v-4.836V141.663v-22.155C326.486,112.501,320.808,106.822,313.8,106.822z
				 M209.922,156.251c0-7.006,5.68-12.685,12.686-12.685h17.441c7.005,0,12.686,5.679,12.686,12.685v161.975
				c0,7.006-5.681,12.686-12.686,12.686h-17.441c-7.006,0-12.686-5.68-12.686-12.686V156.251z"/>
			<path style="fill:#FFFFFF;" d="M222.607,330.911h17.441c7.005,0,12.686-5.68,12.686-12.686V156.251
				c0-7.006-5.681-12.685-12.686-12.685h-17.441c-7.006,0-12.686,5.679-12.686,12.685v161.975
				C209.922,325.231,215.602,330.911,222.607,330.911z"/>
		</g>
	</g>
</g>
</svg>
