<?xml version="1.0" encoding="iso-8859-1"?>
<!-- Generator: Adobe Illustrator 16.0.0, SVG Export Plug-In . SVG Version: 6.00 Build 0)  -->
<!DOCTYPE svg PUBLIC "-//W3C//DTD SVG 1.1//EN" "http://www.w3.org/Graphics/SVG/1.1/DTD/svg11.dtd">
<svg version="1.1" xmlns="http://www.w3.org/2000/svg" xmlns:xlink="http://www.w3.org/1999/xlink" x="0px" y="0px" width="512px"
	 height="512px" viewBox="0 0 512 512" style="enable-background:new 0 0 512 512;" xml:space="preserve">
<g id="Guides_For_Artboard">
</g>
<g id="Artwork">
</g>
<g id="Layer_3">
	<g>
		<circle style="fill:#664B3A;" cx="255.997" cy="256" r="245"/>
		<g>
			<path style="fill:#E6A52E;" d="M226.699,264.736H149.24c-2.807,0-4.894,2.236-4.52,5.019
				c2.593,19.31,10.106,37.418,21.928,52.906c1.703,2.231,4.782,2.37,6.768,0.385l54.771-54.752
				C230.173,266.308,229.507,264.736,226.699,264.736z"/>
			<path style="fill:#E6A52E;" d="M242.62,282.633l-54.814,54.771c-1.984,1.985-1.844,5.065,0.389,6.769
				c15.486,11.821,33.652,19.335,52.963,21.928c2.782,0.374,5.1-1.713,5.1-4.521v-77.458
				C246.257,281.314,244.605,280.648,242.62,282.633z"/>
			<path style="fill:#E6A52E;" d="M241.163,142.887c-19.311,2.593-37.494,10.106-52.98,21.928c-2.232,1.703-2.349,4.783-0.364,6.768
				l54.795,54.771c1.985,1.986,3.644,1.319,3.644-1.489v-77.458C246.257,144.599,243.945,142.513,241.163,142.887z"/>
			<path style="fill:#E6A52E;" d="M149.24,244.159h77.459c2.808,0,3.474-1.526,1.488-3.511l-54.771-54.688
				c-1.985-1.985-5.064-1.897-6.768,0.334c-11.821,15.488-19.335,33.587-21.928,52.897
				C144.347,241.974,146.434,244.159,149.24,244.159z"/>
			<path style="fill:#E6A52E;" d="M270.258,282.633c-1.985-1.985-3.424-1.318-3.424,1.489v77.458c0,2.808,2.12,4.894,4.902,4.521
				c19.312-2.592,37.304-10.106,52.79-21.928c2.232-1.704,2.404-4.783,0.418-6.768L270.258,282.633z"/>
			<path style="fill:#E6A52E;" d="M285.956,244.159h77.457c2.809,0,4.895-2.196,4.521-4.978
				c-2.592-19.311-10.106-37.378-21.928-52.866c-1.704-2.231-4.782-2.382-6.769-0.396l-54.771,54.729
				C282.481,242.633,283.148,244.159,285.956,244.159z"/>
			<path style="fill:#E6A52E;" d="M255.996,98.172c-87.165,0-157.828,70.662-157.828,157.828
				c0,87.166,70.663,157.828,157.828,157.828c87.167,0,157.829-70.662,157.829-157.828
				C413.825,168.833,343.163,98.172,255.996,98.172z M352.938,351.104c-25.805,25.806-60.115,40.018-96.611,40.018
				c-36.494,0-70.806-14.212-96.611-40.018c-25.805-25.806-40.018-60.116-40.018-96.611c0-36.494,14.213-70.805,40.018-96.611
				c25.806-25.805,60.117-40.018,96.611-40.018c36.496,0,70.805,14.212,96.611,40.018c25.805,25.806,40.018,60.117,40.018,96.611
				C392.956,290.989,378.743,325.299,352.938,351.104z"/>
			<path style="fill:#E6A52E;" d="M363.413,264.736h-77.457c-2.809,0-3.475,1.572-1.49,3.557l54.771,54.732
				c1.984,1.985,5.064,1.875,6.769-0.356c11.821-15.487,19.336-33.61,21.928-52.92C368.308,266.967,366.222,264.736,363.413,264.736
				z"/>
			<path style="fill:#E6A52E;" d="M270.278,226.354l54.623-54.77c1.985-1.986,1.898-5.065-0.333-6.769
				c-15.486-11.822-33.544-19.335-52.854-21.928c-2.782-0.374-4.881,1.713-4.881,4.52v77.458
				C266.834,227.672,268.294,228.339,270.278,226.354z"/>
			<path style="fill:#F6E0C2;" d="M352.938,157.883c-25.807-25.805-60.115-40.018-96.611-40.018
				c-36.494,0-70.806,14.212-96.611,40.018c-25.805,25.806-40.018,60.117-40.018,96.611c0,36.495,14.213,70.805,40.018,96.611
				c25.806,25.806,60.117,40.018,96.611,40.018c36.496,0,70.807-14.212,96.611-40.018c25.805-25.806,40.018-60.116,40.018-96.611
				C392.956,218,378.743,183.689,352.938,157.883z M144.721,239.191c2.593-19.31,10.106-37.409,21.928-52.897
				c1.703-2.231,4.782-2.319,6.768-0.334l54.771,54.688c1.985,1.985,1.319,3.511-1.488,3.511H149.24
				C146.434,244.159,144.347,241.974,144.721,239.191z M166.648,322.66c-11.821-15.487-19.335-33.596-21.928-52.906
				c-0.374-2.783,1.713-5.019,4.52-5.019h77.459c2.808,0,3.474,1.572,1.488,3.557l-54.771,54.752
				C171.431,325.03,168.352,324.892,166.648,322.66z M246.257,361.58c0,2.808-2.317,4.894-5.1,4.521
				c-19.311-2.592-37.477-10.106-52.963-21.928c-2.232-1.704-2.373-4.784-0.389-6.769l54.814-54.771
				c1.985-1.985,3.637-1.318,3.637,1.489V361.58z M246.257,224.865c0,2.808-1.658,3.475-3.644,1.489l-54.795-54.771
				c-1.984-1.985-1.868-5.064,0.364-6.768c15.486-11.822,33.67-19.335,52.98-21.928c2.782-0.374,5.094,1.712,5.094,4.52V224.865z
				 M346.006,186.315c11.821,15.488,19.336,33.555,21.928,52.866c0.374,2.782-1.712,4.978-4.521,4.978h-77.457
				c-2.808,0-3.475-1.526-1.49-3.511l54.771-54.729C341.224,183.934,344.302,184.084,346.006,186.315z M266.834,147.407
				c0-2.807,2.099-4.894,4.881-4.52c19.31,2.593,37.367,10.106,52.854,21.928c2.231,1.703,2.318,4.783,0.333,6.769l-54.623,54.77
				c-1.984,1.986-3.444,1.319-3.444-1.489V147.407z M324.526,344.172c-15.486,11.821-33.479,19.335-52.79,21.928
				c-2.782,0.374-4.902-1.712-4.902-4.521v-77.458c0-2.807,1.438-3.474,3.424-1.489l54.687,54.771
				C326.931,339.389,326.759,342.469,324.526,344.172z M367.934,269.749c-2.592,19.31-10.106,37.433-21.928,52.92
				c-1.704,2.232-4.784,2.342-6.769,0.356l-54.771-54.732c-1.984-1.985-1.318-3.557,1.49-3.557h77.457
				C366.222,264.736,368.308,266.967,367.934,269.749z"/>
		</g>
	</g>
</g>
</svg>
