<?xml version="1.0" encoding="iso-8859-1"?>
<!-- Generator: Adobe Illustrator 16.0.0, SVG Export Plug-In . SVG Version: 6.00 Build 0)  -->
<!DOCTYPE svg PUBLIC "-//W3C//DTD SVG 1.1//EN" "http://www.w3.org/Graphics/SVG/1.1/DTD/svg11.dtd">
<svg version="1.1" xmlns="http://www.w3.org/2000/svg" xmlns:xlink="http://www.w3.org/1999/xlink" x="0px" y="0px" width="512px"
	 height="512px" viewBox="0 0 512 512" style="enable-background:new 0 0 512 512;" xml:space="preserve">
<g id="Guides_For_Artboard">
</g>
<g id="Artwork">
</g>
<g id="Layer_3">
	<g>
		<circle style="fill:#735542;" cx="255.809" cy="254.553" r="245"/>
		<g>
			<path style="fill:#F8F8F8;" d="M315.78,93.325c0.012-0.188,0.029-0.375,0.029-0.566c0-0.199-0.017-0.394-0.03-0.589v-0.071
				l-0.004-0.004c-0.323-4.296-3.743-7.721-8.037-8.052l-0.034-0.034h-0.643c-0.001,0-0.002,0-0.002,0c-0.001,0-0.002,0-0.003,0
				l-50.581,0.009h-0.667h-0.667l-50.581-0.009c-0.001,0-0.002,0-0.002,0c-0.001,0-0.002,0-0.003,0h-0.643l-0.034,0.034
				c-4.294,0.331-7.713,3.756-8.037,8.052l-0.004,0.004v0.071c-0.013,0.195-0.03,0.39-0.03,0.589c0,0.191,0.017,0.378,0.029,0.566
				l-0.028,29.317h119.999L315.78,93.325z"/>
			<polygon style="fill:#F8F8F8;" points="332.117,161.434 332.107,161.434 332.142,161.518 			"/>
			<path style="fill:#F8F8F8;" d="M179.475,161.518c0,0.058,0,29.671,0,68.225h152.667c0-38.554,0-68.167,0-68.225H179.475z"/>
			<path style="fill:#F8F8F8;" d="M179.475,405.098c0,11.046,8.954,20,20,20h55.667h0.667h0.667h55.667c11.046,0,20-8.954,20-20
				c0,0,0-25.173,0-59.33H179.475C179.475,379.925,179.475,405.098,179.475,405.098z"/>
			<path style="fill:#E6A52E;" d="M179.475,249.768c0,32.851,0,67.085,0,96h152.667c0-28.915,0-63.149,0-96
				c0-6.862,0-13.568,0-20.025H179.475C179.475,236.199,179.475,242.906,179.475,249.768z"/>
			<polygon style="fill:#E9E9EB;" points="332.107,161.434 315.861,122.768 315.808,122.643 195.809,122.643 195.756,122.768 
				179.549,161.268 179.5,161.434 179.475,161.518 332.142,161.518 			"/>
		</g>
	</g>
</g>
</svg>
