<?xml version="1.0" encoding="iso-8859-1"?>
<!-- Generator: Adobe Illustrator 16.0.0, SVG Export Plug-In . SVG Version: 6.00 Build 0)  -->
<!DOCTYPE svg PUBLIC "-//W3C//DTD SVG 1.1//EN" "http://www.w3.org/Graphics/SVG/1.1/DTD/svg11.dtd">
<svg version="1.1" xmlns="http://www.w3.org/2000/svg" xmlns:xlink="http://www.w3.org/1999/xlink" x="0px" y="0px" width="512px"
	 height="512px" viewBox="0 0 512 512" style="enable-background:new 0 0 512 512;" xml:space="preserve">
<g id="Guides_For_Artboard">
</g>
<g id="Artwork">
</g>
<g id="Layer_3">
	<path style="fill:#735542;" d="M399.626,244.528h-18.002v20.049h18.002c5.537,0,10.025-4.488,10.025-10.024
		C409.651,249.017,405.163,244.528,399.626,244.528z"/>
	<circle style="fill:#E6A52E;" cx="255.866" cy="255.997" r="245"/>
	<g>
		<path style="fill:none;" d="M201.206,122.935c13.548-3.312,27.398-4.066,48.474-4.188
			C229.12,118.856,213.49,119.542,201.206,122.935z"/>
		<path style="fill:none;" d="M250.472,118.743c0.886-0.004,1.786-0.008,2.698-0.01C252.26,118.734,251.364,118.738,250.472,118.743
			z"/>
		<path style="fill:none;" d="M260.119,118.732c0.913,0.002,1.813,0.006,2.7,0.01C261.927,118.738,261.03,118.734,260.119,118.732z"
			/>
		<path style="fill:none;" d="M188.873,184.904c-1.021-0.448-2.009-0.948-2.961-1.496
			C186.874,183.97,187.861,184.473,188.873,184.904z"/>
		<path style="fill:none;" d="M327.379,183.408c-0.953,0.548-1.94,1.048-2.961,1.496
			C325.429,184.473,326.416,183.97,327.379,183.408z"/>
		<path style="fill:none;" d="M263.61,118.747c21.076,0.122,34.925,0.876,48.474,4.188C299.8,119.542,284.17,118.856,263.61,118.747
			z"/>
		<path style="fill:#F6E0C2;" d="M324.417,184.904c1.021-0.448,2.009-0.948,2.961-1.496c8.812-5.155,15.37-15.594,15.37-26.546
			c0-13.915-9.646-25.911-24.165-31.752c-2.058-0.828-4.224-1.546-6.5-2.175c-13.549-3.312-27.398-4.066-48.474-4.188
			c-0.263-0.001-0.526-0.003-0.791-0.004c-0.887-0.004-1.787-0.008-2.7-0.01c-1.147-0.003-2.297-0.005-3.474-0.006
			c-1.177,0-2.327,0.003-3.475,0.006c-0.912,0.002-1.812,0.006-2.698,0.01c-0.265,0.001-0.529,0.002-0.792,0.004
			c-21.076,0.122-34.925,0.876-48.474,4.188c-2.276,0.628-4.442,1.347-6.5,2.175c-14.519,5.842-24.165,17.837-24.165,31.752
			c0,10.952,6.558,21.391,15.37,26.546c0.953,0.548,1.94,1.048,2.961,1.496c2.538,1.07,4.029,1.973,4.2,5.896
			c0.041,0.936,0.065,4.747,0.079,10.24h126.068h0.919c0.013-5.493,0.037-9.304,0.078-10.24
			C320.388,186.876,321.88,185.974,324.417,184.904z"/>
		<path style="fill:#735542;" d="M193.151,201.04c-0.013-5.493-0.038-9.304-0.079-10.24c-0.171-3.923-1.663-4.826-4.2-5.896
			c-1.011-0.431-1.999-0.934-2.961-1.496c-8.812-5.155-15.37-15.594-15.37-26.546c0-13.915,9.646-25.911,24.165-31.752
			c2.058-0.828,4.224-1.546,6.5-2.175c12.284-3.392,27.914-4.079,48.474-4.188c0.263-0.001,0.527-0.003,0.792-0.004
			c0.892-0.004,1.788-0.008,2.698-0.01c1.147-0.003,2.297-0.005,3.475-0.006c1.177,0,2.327,0.003,3.474,0.006
			c0.911,0.002,1.808,0.006,2.7,0.01c0.265,0.001,0.528,0.002,0.791,0.004c20.56,0.109,36.19,0.796,48.474,4.188
			c2.276,0.628,4.442,1.347,6.5,2.175c14.519,5.842,24.165,17.837,24.165,31.752c0,10.952-6.558,21.391-15.37,26.546
			c-0.963,0.563-1.95,1.065-2.961,1.496c-2.538,1.07-4.029,1.973-4.201,5.896c-0.041,0.936-0.065,4.747-0.078,10.24h12.91h1.212
			c0-0.41,0-0.731,0-0.934c0-4.896,2.696-6.09,3.966-7.004c11.503-8.285,18.565-21.702,18.565-36.24
			c0-20.183-13.613-38.53-33.053-43.779c-2.89-0.996-27.216-8.302-67.094-8.396c-39.878,0.094-64.204,7.4-67.094,8.396
			c-19.44,5.249-33.053,23.597-33.053,43.779c0,14.539,7.062,27.956,18.565,36.24c1.27,0.914,3.966,2.108,3.966,7.004
			c0,0.203,0,0.524,0,0.934h13.482H193.151z"/>
		<path style="fill:#735542;" d="M154.193,389.895c0,8.021,6.503,14.524,14.524,14.524h16.373c8.021,0,14.524-6.503,14.524-14.524
			c0-2.274-0.537-4.418-1.47-6.335h-42.482C154.731,385.477,154.193,387.621,154.193,389.895z"/>
		<path style="fill:#735542;" d="M312.116,389.895c0,8.021,6.503,14.524,14.524,14.524h16.373c8.021,0,14.525-6.503,14.525-14.524
			c0-2.274-0.537-4.418-1.47-6.335h-42.483C312.654,385.477,312.116,387.621,312.116,389.895z"/>
		<path style="fill:#FFFFFF;" d="M372.831,201.04h-38.57h-1.212h-12.91h-0.919H193.151h-0.639H179.03h-0.345h-39.784
			c-9.761,0-17.673,7.913-17.673,17.673v119.686h269.275v-81.504v-20.049v-18.132C390.503,208.953,382.591,201.04,372.831,201.04z"
			/>
		<path style="fill:#D46A56;" d="M121.228,354.244v11.643c0,9.761,7.912,17.673,17.673,17.673h16.762h42.482h115.44h42.483h16.762
			c9.761,0,17.673-7.912,17.673-17.673v-11.643v-15.845H121.228V354.244z"/>
	</g>
</g>
</svg>
