<?xml version="1.0" encoding="iso-8859-1"?>
<!-- Generator: Adobe Illustrator 16.0.0, SVG Export Plug-In . SVG Version: 6.00 Build 0)  -->
<!DOCTYPE svg PUBLIC "-//W3C//DTD SVG 1.1//EN" "http://www.w3.org/Graphics/SVG/1.1/DTD/svg11.dtd">
<svg version="1.1" xmlns="http://www.w3.org/2000/svg" xmlns:xlink="http://www.w3.org/1999/xlink" x="0px" y="0px" width="512px"
	 height="512px" viewBox="0 0 512 512" style="enable-background:new 0 0 512 512;" xml:space="preserve">
<g id="Guides_For_Artboard">
</g>
<g id="Artwork">
</g>
<g id="Layer_3">
	<g>
		<circle style="fill:#E6A52E;" cx="255.866" cy="257" r="245"/>
		<g>
			<path style="fill:#EAEBEC;" d="M242.813,342.692v57.409h-44.701c-7.28,0-13.182,5.045-13.182,11.271
				c0,6.224,5.901,11.271,13.182,11.271h115.384c7.279,0,13.181-5.046,13.181-11.271c0-6.226-5.901-11.271-13.181-11.271h-44.702
				v-57.409c-3.721,2.474-8.187,3.918-12.991,3.918C251,346.611,246.534,345.167,242.813,342.692z"/>
			<path style="fill:#C0C2C5;" d="M255.834,335.564c-0.011,0-0.021,0-0.031,0c-7.55,0-14.784-1.097-21.576-3.141
				c1.814,4.199,4.817,7.763,8.586,10.269c3.721,2.474,8.187,3.918,12.99,3.918c4.804,0,9.27-1.444,12.991-3.918
				c3.763-2.502,6.761-6.058,8.577-10.248c-6.771,2.03-13.981,3.12-21.505,3.12C255.855,335.564,255.845,335.564,255.834,335.564z"
				/>
			<path style="fill:#EAEBEC;" d="M324.906,91.358H186.826c-2.761,0-5,2.239-5,5v164.176c0,0.232,0.016,0.462,0.047,0.686
				c1.152,34.583,22.449,62.183,52.417,71.204c6.783,2.042,14.007,3.137,21.545,3.141c0.011,0,0.021,0,0.031,0
				c7.523,0,14.734-1.09,21.505-3.12c0.024-0.007,0.048-0.013,0.072-0.021c29.967-9.02,51.264-36.615,52.416-71.198
				c0.031-0.226,0.047-0.457,0.047-0.692V96.358C329.906,93.597,327.667,91.358,324.906,91.358z M314.617,260.322h-0.024
				c-0.887,32.814-25.253,59.142-58.281,59.142s-57.394-26.328-58.281-59.142h-0.024v-93.008c0-3.422,2.672-6.212,6.042-6.417
				l0.006-0.007h0.128c0.087-0.003,0.173-0.013,0.261-0.013s0.174,0.01,0.261,0.013h103.213c0.087-0.003,0.173-0.013,0.261-0.013
				c3.489,0,6.322,2.777,6.428,6.24l0.01,0.01V260.322z"/>
			<path style="fill:#D46A56;" d="M308.179,160.877c-0.088,0-0.174,0.01-0.261,0.013H204.705c-0.087-0.003-0.173-0.013-0.261-0.013
				s-0.174,0.01-0.261,0.013h-0.128l-0.006,0.007c-3.37,0.206-6.042,2.996-6.042,6.417v93.008h0.024
				c0.887,32.814,25.253,59.142,58.281,59.142s57.394-26.328,58.281-59.142h0.024v-93.195l-0.01-0.01
				C314.501,163.654,311.668,160.877,308.179,160.877z"/>
		</g>
	</g>
</g>
</svg>
